<?xml version="1.0" encoding="utf-8"?>
<!-- Generator: Adobe Illustrator 24.2.3, SVG Export Plug-In . SVG Version: 6.00 Build 0)  -->
<svg version="1.1" id="Layer_1" xmlns="http://www.w3.org/2000/svg" xmlns:xlink="http://www.w3.org/1999/xlink" x="0px" y="0px"
	 viewBox="0 0 654 137.1" style="enable-background:new 0 0 654 137.1;" xml:space="preserve">
<style type="text/css">
	.st0{fill:#575757;}
	.st1{fill:#5A5A5A;}
	.st2{fill:#303030;}
	.st3{enable-background:new    ;}
</style>
<g>
	<path class="st0" d="M117.9,94.3c-4.7,4.5-1.5-7.2-6-11.9L82,49.9c-4.5-4.7-18.4-2.7-13.7-7.2l14.8-14.3c4.7-4.5,12.1-4.4,16.6,0.3
		l0,0L133,63.3c4.5,4.7,4.4,12.1-0.3,16.6l0,0L117.9,94.3z"/>
	<path class="st1" d="M43.5,118.5c-4.6-4.6,7.2-1.7,11.8-6.3l31.8-30.6c4.6-4.6,2.3-18.4,6.9-13.9l14.6,14.5
		c4.6,4.6,4.6,12,0.1,16.6l-33.9,34.1c-4.6,4.6-12,4.6-16.6,0.1l0,0L43.5,118.5z"/>
	<path class="st2" d="M20.1,42.3c4.7-4.5,1.4,7.2,5.9,12l29.5,32.8c4.5,4.7,18.4,2.9,13.7,7.3l-15,14.1c-4.7,4.5-12.2,4.2-16.6-0.5
		L4.7,73c-4.4-4.7-4.2-12.2,0.5-16.6L20.1,42.3z"/>
	<path class="st1" d="M95.2,19.5c4.4,4.8-7.2,1.4-12,5.8l-33,29.4c-4.8,4.4-3,18.4-7.4,13.6l-14-15.1c-4.4-4.8-4.2-12.2,0.6-16.6
		L64.5,3.9c4.8-4.4,12.2-4.2,16.6,0.6L95.2,19.5z"/>
</g>
<g class="st3">
	<path d="M164.2,89.8l19.2-50.1h7.1l20.5,50.1h-7.6l-5.8-15.2h-21l-5.5,15.2H164.2z M178.6,69.3h17l-5.2-13.9
		c-1.6-4.2-2.8-7.7-3.6-10.4c-0.6,3.2-1.5,6.4-2.7,9.6L178.6,69.3z"/>
	<path d="M221.3,89.8h-5.7V39.7h6.2v17.9c2.6-3.3,5.9-4.9,9.9-4.9c2.2,0,4.3,0.5,6.3,1.3c2,0.9,3.6,2.2,4.9,3.8
		c1.3,1.6,2.3,3.6,3,5.9c0.7,2.3,1.1,4.8,1.1,7.4c0,6.2-1.5,11-4.6,14.4c-3.1,3.4-6.8,5.1-11.1,5.1c-4.3,0-7.6-1.8-10.1-5.4V89.8z
		 M221.2,71.4c0,4.4,0.6,7.5,1.8,9.4c1.9,3.2,4.6,4.8,7.9,4.8c2.7,0,5-1.2,7-3.5c2-2.3,2.9-5.8,2.9-10.4c0-4.7-0.9-8.2-2.8-10.5
		s-4.2-3.4-6.8-3.4c-2.7,0-5,1.2-7,3.5C222.2,63.6,221.2,67,221.2,71.4z"/>
	<path d="M252.2,71.7c0-6.7,1.9-11.7,5.6-14.9c3.1-2.7,6.9-4,11.4-4c5,0,9.1,1.6,12.2,4.9c3.2,3.3,4.8,7.8,4.8,13.6
		c0,4.7-0.7,8.3-2.1,11s-3.4,4.8-6.1,6.2c-2.7,1.5-5.6,2.2-8.8,2.2c-5.1,0-9.2-1.6-12.3-4.9C253.8,82.5,252.2,77.8,252.2,71.7z
		 M258.6,71.7c0,4.6,1,8.1,3,10.4c2,2.3,4.6,3.5,7.7,3.5c3.1,0,5.6-1.2,7.6-3.5c2-2.3,3-5.9,3-10.6c0-4.5-1-7.9-3.1-10.2
		c-2-2.3-4.6-3.5-7.6-3.5c-3.1,0-5.6,1.2-7.7,3.5C259.6,63.6,258.6,67,258.6,71.7z"/>
	<path d="M317.2,89.8v-5.3c-2.8,4.1-6.7,6.2-11.5,6.2c-2.1,0-4.1-0.4-6-1.2c-1.9-0.8-3.2-1.9-4.1-3.1c-0.9-1.2-1.5-2.8-1.9-4.6
		c-0.3-1.2-0.4-3.1-0.4-5.7V53.5h6.2v20.1c0,3.2,0.1,5.4,0.4,6.5c0.4,1.6,1.2,2.9,2.5,3.8c1.3,0.9,2.8,1.4,4.6,1.4s3.6-0.5,5.2-1.4
		c1.6-0.9,2.8-2.2,3.4-3.9c0.7-1.6,1-4,1-7.1V53.5h6.2v36.3H317.2z"/>
	<path d="M345.8,84.3l0.9,5.4c-1.7,0.4-3.3,0.5-4.6,0.5c-2.2,0-4-0.4-5.2-1.1s-2.1-1.6-2.6-2.8c-0.5-1.1-0.8-3.6-0.8-7.3V58.3H329
		v-4.8h4.5v-9l6.1-3.7v12.7h6.2v4.8h-6.2v21.2c0,1.8,0.1,2.9,0.3,3.4c0.2,0.5,0.6,0.9,1.1,1.2c0.5,0.3,1.2,0.4,2.1,0.4
		C343.8,84.6,344.7,84.5,345.8,84.3z"/>
	<path d="M362.7,89.8l19.2-50.1h7.1l20.5,50.1H402l-5.8-15.2h-21l-5.5,15.2H362.7z M377.2,69.3h17l-5.2-13.9
		c-1.6-4.2-2.8-7.7-3.6-10.4c-0.6,3.2-1.5,6.4-2.7,9.6L377.2,69.3z"/>
	<path d="M414.1,89.8V53.5h5.5v5.2c2.7-4,6.5-6,11.6-6c2.2,0,4.2,0.4,6,1.2c1.8,0.8,3.2,1.8,4.1,3.1c0.9,1.3,1.5,2.8,1.9,4.5
		c0.2,1.1,0.3,3.1,0.3,6v22.3h-6.2V67.8c0-2.5-0.2-4.4-0.7-5.6c-0.5-1.2-1.3-2.2-2.5-3c-1.2-0.7-2.6-1.1-4.3-1.1
		c-2.6,0-4.9,0.8-6.8,2.5c-1.9,1.7-2.9,4.8-2.9,9.5v19.8H414.1z"/>
	<path d="M476.7,85.4c-2.3,1.9-4.5,3.3-6.6,4.1c-2.1,0.8-4.4,1.2-6.8,1.2c-4,0-7.1-1-9.2-2.9c-2.1-1.9-3.2-4.4-3.2-7.5
		c0-1.8,0.4-3.4,1.2-4.9c0.8-1.5,1.9-2.6,3.2-3.5c1.3-0.9,2.8-1.6,4.4-2c1.2-0.3,3-0.6,5.5-0.9c5-0.6,8.6-1.3,11-2.1
		c0-0.8,0-1.4,0-1.6c0-2.5-0.6-4.3-1.7-5.3c-1.6-1.4-3.9-2.1-7-2.1c-2.9,0-5,0.5-6.4,1.5c-1.4,1-2.4,2.8-3.1,5.4l-6-0.8
		c0.5-2.6,1.4-4.7,2.7-6.2s3.1-2.8,5.4-3.7c2.4-0.9,5.1-1.3,8.2-1.3c3.1,0,5.6,0.4,7.6,1.1c1.9,0.7,3.4,1.6,4.3,2.8
		c0.9,1.1,1.5,2.5,1.9,4.2c0.2,1,0.3,2.9,0.3,5.7v8.2c0,5.7,0.1,9.3,0.4,10.9c0.3,1.5,0.8,3,1.6,4.4H478
		C477.3,88.6,476.9,87.1,476.7,85.4z M476.2,71.6c-2.2,0.9-5.6,1.7-10,2.3c-2.5,0.4-4.3,0.8-5.4,1.2c-1,0.5-1.9,1.1-2.4,2
		c-0.6,0.9-0.9,1.9-0.9,2.9c0,1.6,0.6,3,1.9,4.1c1.2,1.1,3.1,1.6,5.5,1.6c2.4,0,4.5-0.5,6.3-1.6c1.8-1,3.2-2.5,4.1-4.3
		c0.7-1.4,1-3.4,1-6.2V71.6z"/>
	<path d="M491.8,89.8V39.7h6.2v50.1H491.8z"/>
	<path d="M507.3,103.8l-0.7-5.8c1.3,0.4,2.5,0.5,3.5,0.5c1.4,0,2.5-0.2,3.3-0.7c0.8-0.5,1.5-1.1,2-1.9c0.4-0.6,1-2.1,1.9-4.6
		c0.1-0.3,0.3-0.8,0.5-1.5L504,53.5h6.6l7.6,21c1,2.7,1.9,5.5,2.6,8.4c0.7-2.8,1.5-5.6,2.5-8.3l7.8-21.2h6.2l-13.8,36.9
		c-1.5,4-2.6,6.7-3.5,8.2c-1.1,2-2.3,3.5-3.8,4.5c-1.4,0.9-3.1,1.4-5.1,1.4C510,104.6,508.7,104.3,507.3,103.8z"/>
	<path d="M556,84.3l0.9,5.4c-1.7,0.4-3.3,0.5-4.6,0.5c-2.2,0-4-0.4-5.2-1.1s-2.1-1.6-2.6-2.8c-0.5-1.1-0.8-3.6-0.8-7.3V58.3h-4.5
		v-4.8h4.5v-9l6.1-3.7v12.7h6.2v4.8h-6.2v21.2c0,1.8,0.1,2.9,0.3,3.4c0.2,0.5,0.6,0.9,1.1,1.2c0.5,0.3,1.2,0.4,2.1,0.4
		C553.9,84.6,554.8,84.5,556,84.3z"/>
	<path d="M562,46.8v-7.1h6.2v7.1H562z M562,89.8V53.5h6.2v36.3H562z"/>
	<path d="M601.2,76.5l6,0.8c-0.7,4.2-2.4,7.4-5.1,9.8c-2.7,2.4-6.1,3.5-10,3.5c-5,0-9-1.6-12-4.9c-3-3.2-4.5-7.9-4.5-14
		c0-3.9,0.6-7.3,1.9-10.3s3.3-5.1,5.9-6.6c2.7-1.5,5.5-2.2,8.7-2.2c3.9,0,7.2,1,9.7,3c2.5,2,4.1,4.8,4.8,8.5l-6,0.9
		c-0.6-2.4-1.6-4.3-3-5.5c-1.4-1.2-3.2-1.8-5.2-1.8c-3.1,0-5.6,1.1-7.6,3.3c-1.9,2.2-2.9,5.7-2.9,10.5c0,4.9,0.9,8.4,2.8,10.6
		c1.9,2.2,4.3,3.3,7.3,3.3c2.4,0,4.4-0.7,6-2.2C599.8,81.9,600.8,79.6,601.2,76.5z"/>
	<path d="M610.1,79l6.1-1c0.3,2.4,1.3,4.3,2.9,5.6c1.6,1.3,3.7,1.9,6.5,1.9c2.8,0,4.9-0.6,6.3-1.7c1.4-1.1,2.1-2.5,2.1-4
		c0-1.4-0.6-2.5-1.8-3.3c-0.8-0.5-2.9-1.2-6.3-2.1c-4.5-1.1-7.6-2.1-9.4-3c-1.7-0.8-3.1-2-4-3.5c-0.9-1.5-1.4-3.1-1.4-4.9
		c0-1.6,0.4-3.1,1.1-4.5s1.7-2.5,3-3.4c1-0.7,2.3-1.3,3.9-1.8c1.7-0.5,3.4-0.7,5.3-0.7c2.8,0,5.3,0.4,7.5,1.2
		c2.2,0.8,3.7,1.9,4.8,3.3c1,1.4,1.7,3.3,2.1,5.6l-6,0.8c-0.3-1.9-1.1-3.3-2.4-4.4c-1.3-1-3.2-1.6-5.6-1.6c-2.8,0-4.8,0.5-6,1.4
		c-1.2,0.9-1.8,2-1.8,3.3c0,0.8,0.3,1.5,0.8,2.2c0.5,0.7,1.3,1.2,2.4,1.6c0.6,0.2,2.4,0.8,5.4,1.6c4.4,1.2,7.4,2.1,9.1,2.9
		c1.7,0.7,3.1,1.8,4.1,3.2c1,1.4,1.5,3.2,1.5,5.3c0,2.1-0.6,4-1.8,5.8c-1.2,1.8-2.9,3.2-5.2,4.2c-2.3,1-4.8,1.5-7.7,1.5
		c-4.7,0-8.3-1-10.8-2.9C612.3,85.8,610.7,82.9,610.1,79z"/>
</g>
</svg>
