<?xml version="1.0" encoding="utf-8"?>
<!-- Generator: Adobe Illustrator 24.2.3, SVG Export Plug-In . SVG Version: 6.00 Build 0)  -->
<svg version="1.1" id="Layer_1" xmlns="http://www.w3.org/2000/svg" xmlns:xlink="http://www.w3.org/1999/xlink" x="0px" y="0px"
	 viewBox="0 0 545 137.1" style="enable-background:new 0 0 545 137.1;" xml:space="preserve">
<g>
	<g>
		<path d="M109.7,0H27.4C12.3,0,0,12.3,0,27.4v82.3c0,15.1,12.3,27.4,27.4,27.4h82.3c15.1,0,27.4-12.3,27.4-27.4V27.4
			C137.1,12.3,124.9,0,109.7,0z M123.4,102.9c0,11.4-9.2,20.6-20.6,20.6H34.3c-11.4,0-20.6-9.2-20.6-20.6V34.3
			c0-11.4,9.2-20.6,20.6-20.6h68.6c11.4,0,20.6,9.2,20.6,20.6V102.9z"/>
	</g>
</g>
<g>
	<g>
		<path d="M34.3,96v13.7h68.6V96H34.3z M89.1,61.7H75.4V27.4H61.7v34.3H48l20.6,27.4L89.1,61.7z"/>
	</g>
</g>
<g>
	<path d="M170.1,91.9V35h19.6c4.4,0,7.8,0.3,10.1,0.8c3.3,0.8,6,2.1,8.4,4.1c3,2.5,5.2,5.8,6.7,9.7c1.5,3.9,2.2,8.5,2.2,13.5
		c0,4.3-0.5,8.2-1.5,11.5c-1,3.3-2.3,6.1-3.9,8.3s-3.3,3.9-5.2,5.2s-4.1,2.2-6.8,2.9c-2.7,0.6-5.7,1-9.1,1H170.1z M177.7,85.2h12.2
		c3.8,0,6.7-0.3,8.8-1c2.1-0.7,3.8-1.7,5.1-3c1.8-1.8,3.2-4.2,4.2-7.2c1-3,1.5-6.7,1.5-11c0-6-1-10.5-2.9-13.7
		c-2-3.2-4.3-5.3-7.1-6.4c-2-0.8-5.3-1.2-9.7-1.2h-12V85.2z"/>
	<path d="M224.1,71.3c0-7.6,2.1-13.3,6.4-17c3.5-3.1,7.9-4.6,13-4.6c5.7,0,10.3,1.9,13.9,5.6s5.4,8.8,5.4,15.4
		c0,5.3-0.8,9.5-2.4,12.5c-1.6,3-3.9,5.4-7,7.1c-3,1.7-6.4,2.5-10,2.5c-5.8,0-10.4-1.9-14-5.6C225.9,83.6,224.1,78.3,224.1,71.3z
		 M231.3,71.3c0,5.3,1.2,9.2,3.5,11.9c2.3,2.6,5.2,3.9,8.7,3.9c3.5,0,6.4-1.3,8.7-4c2.3-2.6,3.5-6.7,3.5-12.1c0-5.1-1.2-9-3.5-11.6
		c-2.3-2.6-5.2-3.9-8.6-3.9c-3.5,0-6.4,1.3-8.7,3.9C232.4,62.1,231.3,66,231.3,71.3z"/>
	<path d="M278.5,91.9l-12.6-41.2h7.2l6.6,23.8l2.4,8.9c0.1-0.4,0.8-3.3,2.1-8.5l6.6-24.2h7.2l6.2,23.9l2.1,7.9l2.4-8l7.1-23.8h6.8
		l-12.9,41.2h-7.3l-6.6-24.7l-1.6-7l-8.3,31.7H278.5z"/>
	<path d="M328.4,91.9V50.7h6.3v5.9c3-4.5,7.4-6.8,13.1-6.8c2.5,0,4.8,0.4,6.9,1.3s3.6,2.1,4.7,3.5c1,1.5,1.8,3.2,2.2,5.2
		c0.3,1.3,0.4,3.6,0.4,6.8v25.4h-7V66.8c0-2.8-0.3-5-0.8-6.4s-1.5-2.5-2.9-3.4c-1.4-0.8-3-1.3-4.9-1.3c-3,0-5.5,0.9-7.7,2.8
		c-2.2,1.9-3.2,5.5-3.2,10.8v22.5H328.4z"/>
	<path d="M372.4,91.9V35h7v56.9H372.4z"/>
	<path d="M387.7,71.3c0-7.6,2.1-13.3,6.4-17c3.5-3.1,7.9-4.6,13-4.6c5.7,0,10.3,1.9,13.9,5.6s5.4,8.8,5.4,15.4
		c0,5.3-0.8,9.5-2.4,12.5c-1.6,3-3.9,5.4-7,7.1c-3,1.7-6.4,2.5-10,2.5c-5.8,0-10.4-1.9-14-5.6C389.4,83.6,387.7,78.3,387.7,71.3z
		 M394.8,71.3c0,5.3,1.2,9.2,3.5,11.9c2.3,2.6,5.2,3.9,8.7,3.9c3.5,0,6.4-1.3,8.7-4c2.3-2.6,3.5-6.7,3.5-12.1c0-5.1-1.2-9-3.5-11.6
		c-2.3-2.6-5.2-3.9-8.6-3.9c-3.5,0-6.4,1.3-8.7,3.9C396,62.1,394.8,66,394.8,71.3z"/>
	<path d="M461.4,86.8c-2.6,2.2-5.1,3.8-7.5,4.7c-2.4,0.9-5,1.4-7.7,1.4c-4.5,0-8-1.1-10.4-3.3c-2.4-2.2-3.7-5-3.7-8.5
		c0-2,0.5-3.9,1.4-5.5c0.9-1.7,2.1-3,3.6-4c1.5-1,3.2-1.8,5-2.3c1.4-0.4,3.4-0.7,6.2-1c5.6-0.7,9.8-1.5,12.5-2.4c0-1,0-1.6,0-1.8
		c0-2.8-0.7-4.9-2-6c-1.8-1.6-4.4-2.4-8-2.4c-3.3,0-5.7,0.6-7.3,1.7c-1.6,1.2-2.7,3.2-3.5,6.1l-6.8-0.9c0.6-2.9,1.6-5.3,3.1-7.1
		c1.4-1.8,3.5-3.2,6.2-4.2c2.7-1,5.8-1.5,9.4-1.5c3.5,0,6.4,0.4,8.6,1.2c2.2,0.8,3.8,1.9,4.9,3.1c1,1.3,1.8,2.8,2.2,4.8
		c0.2,1.2,0.3,3.3,0.3,6.4v9.3c0,6.5,0.1,10.6,0.4,12.3c0.3,1.7,0.9,3.4,1.8,5h-7.3C462.1,90.5,461.6,88.8,461.4,86.8z M460.8,71.2
		c-2.5,1-6.3,1.9-11.4,2.6c-2.9,0.4-4.9,0.9-6.1,1.4s-2.1,1.3-2.8,2.3c-0.6,1-1,2.1-1,3.3c0,1.9,0.7,3.4,2.1,4.7
		c1.4,1.2,3.5,1.9,6.2,1.9c2.7,0,5.1-0.6,7.2-1.8c2.1-1.2,3.6-2.8,4.6-4.8c0.8-1.6,1.1-3.9,1.1-7V71.2z"/>
	<path d="M505.5,91.9v-5.2c-2.6,4.1-6.5,6.1-11.5,6.1c-3.3,0-6.3-0.9-9.1-2.7c-2.8-1.8-4.9-4.3-6.4-7.6c-1.5-3.2-2.3-7-2.3-11.2
		c0-4.1,0.7-7.9,2.1-11.2c1.4-3.4,3.4-5.9,6.2-7.7c2.7-1.8,5.8-2.7,9.2-2.7c2.5,0,4.7,0.5,6.6,1.6c1.9,1,3.5,2.4,4.7,4.1V35h7v56.9
		H505.5z M483.4,71.3c0,5.3,1.1,9.2,3.3,11.8c2.2,2.6,4.9,3.9,7.9,3.9c3.1,0,5.7-1.2,7.8-3.7c2.1-2.5,3.2-6.3,3.2-11.4
		c0-5.6-1.1-9.8-3.3-12.4s-4.9-4-8-4c-3.1,0-5.7,1.3-7.8,3.8C484.4,61.9,483.4,65.9,483.4,71.3z"/>
</g>
</svg>
