<?xml version="1.0" encoding="utf-8"?>
<!-- Generator: Adobe Illustrator 24.2.3, SVG Export Plug-In . SVG Version: 6.00 Build 0)  -->
<svg version="1.1" id="Layer_1" xmlns="http://www.w3.org/2000/svg" xmlns:xlink="http://www.w3.org/1999/xlink" x="0px" y="0px"
	 viewBox="0 0 654 137.1" style="enable-background:new 0 0 654 137.1;" xml:space="preserve">
<style type="text/css">
	.st0{fill:#575757;}
	.st1{fill:#5A5A5A;}
	.st2{fill:#303030;}
	.st3{font-family:'ArialMT';}
	.st4{font-size:70px;}
</style>
<g>
	<g>
		<path d="M109.7,0H27.4C12.3,0,0,12.3,0,27.4v82.3c0,15.1,12.3,27.4,27.4,27.4h82.3c15.1,0,27.4-12.3,27.4-27.4V27.4
			C137.1,12.3,124.9,0,109.7,0z M123.4,102.9c0,11.4-9.2,20.6-20.6,20.6H34.3c-11.4,0-20.6-9.2-20.6-20.6V34.3
			c0-11.4,9.2-20.6,20.6-20.6h68.6c11.4,0,20.6,9.2,20.6,20.6L123.4,102.9L123.4,102.9z"/>
	</g>
</g>
<g>
	<g>
		<path d="M34.3,96v13.7h68.6V96H34.3z M89.1,61.7H75.4V27.4H61.7v34.3H48l20.6,27.4L89.1,61.7z"/>
	</g>
</g>
<g>
	<path class="st0" d="M117.9,94.3c-4.7,4.5-1.5-7.2-6-11.9L82,49.9c-4.5-4.7-18.4-2.7-13.7-7.2l14.8-14.3c4.7-4.5,12.1-4.4,16.6,0.3
		c0,0,0,0,0,0l33.3,34.6c4.5,4.7,4.4,12.1-0.3,16.6c0,0,0,0,0,0L117.9,94.3z"/>
	<path class="st1" d="M43.5,118.5c-4.6-4.6,7.2-1.7,11.8-6.3l31.8-30.6c4.6-4.6,2.3-18.4,6.9-13.9l14.6,14.5
		c4.6,4.6,4.6,12,0.1,16.6l-33.9,34.1c-4.6,4.6-12,4.6-16.6,0.1c0,0,0,0,0,0L43.5,118.5z"/>
	<path class="st2" d="M20.1,42.3c4.7-4.5,1.4,7.2,5.9,12l29.5,32.8c4.5,4.7,18.4,2.9,13.7,7.3l-15,14.1c-4.7,4.5-12.2,4.2-16.6-0.5
		l-32.9-35c-4.4-4.7-4.2-12.2,0.5-16.6L20.1,42.3z"/>
	<path class="st1" d="M95.2,19.5c4.4,4.8-7.2,1.4-12,5.8L50.2,54.7c-4.8,4.4-3,18.4-7.4,13.6l-14-15.1c-4.4-4.8-4.2-12.2,0.6-16.6
		L64.5,3.9c4.8-4.4,12.2-4.2,16.6,0.6L95.2,19.5z"/>
</g>
<text transform="matrix(1 0 0 1 164.2914 89.8339)" class="st3 st4">Download</text>
<text transform="matrix(1 0 0 1 164.2914 89.8339)" class="st3 st4">About Analytics</text>
</svg>
